<svg width="106" height="55" viewBox="0 0 106 55" fill="none" xmlns="http://www.w3.org/2000/svg">
<path d="M6.55097 38.45C5.27097 38.45 4.27097 38.13 3.55097 37.49C2.85097 36.85 2.50097 35.83 2.50097 34.43V24.17H0.430969V23.87L1.15097 23.75C1.77097 23.61 2.30097 23.41 2.74097 23.15C3.20097 22.89 3.65097 22.54 4.09097 22.1L6.55097 19.37H6.85097L6.76097 23.57H10.121V24.17H6.73097V34.97C6.73097 35.67 6.88097 36.2 7.18097 36.56C7.50097 36.92 7.90097 37.1 8.38097 37.1C8.80097 37.1 9.17097 37 9.49097 36.8C9.81097 36.58 10.131 36.29 10.451 35.93L10.751 36.23C10.351 36.91 9.80097 37.45 9.10097 37.85C8.40097 38.25 7.55097 38.45 6.55097 38.45Z" fill="black"/>
<path d="M11.7808 38V37.7L12.1408 37.58C12.8608 37.34 13.2208 36.84 13.2208 36.08V20.06C13.2208 19.64 13.1508 19.33 13.0108 19.13C12.8708 18.93 12.6008 18.78 12.2008 18.68L11.7508 18.56V18.26L17.0308 16.97L17.5108 17.24L17.3908 21.47V25.22C18.0908 24.64 18.8408 24.15 19.6408 23.75C20.4608 23.33 21.3608 23.12 22.3408 23.12C23.6408 23.12 24.6708 23.49 25.4308 24.23C26.2108 24.97 26.6008 26.11 26.6008 27.65V36.11C26.6008 36.51 26.6808 36.83 26.8408 37.07C27.0008 37.31 27.2808 37.49 27.6808 37.61L27.9208 37.7V38H20.9008V37.7L21.2608 37.61C21.9808 37.37 22.3408 36.86 22.3408 36.08V26.66C22.3408 25.86 22.2008 25.31 21.9208 25.01C21.6608 24.71 21.1908 24.56 20.5108 24.56C20.0708 24.56 19.5908 24.65 19.0708 24.83C18.5508 24.99 18.0208 25.28 17.4808 25.7V36.14C17.4808 36.92 17.8408 37.42 18.5608 37.64L18.8008 37.7V38H11.7808Z" fill="black"/>
<path d="M32.6932 21.56C32.0132 21.56 31.4332 21.35 30.9532 20.93C30.4932 20.49 30.2632 19.94 30.2632 19.28C30.2632 18.6 30.4932 18.05 30.9532 17.63C31.4332 17.21 32.0132 17 32.6932 17C33.3732 17 33.9432 17.21 34.4032 17.63C34.8632 18.05 35.0932 18.6 35.0932 19.28C35.0932 19.94 34.8632 20.49 34.4032 20.93C33.9432 21.35 33.3732 21.56 32.6932 21.56ZM29.1532 38V37.7L29.5732 37.58C29.9732 37.46 30.2432 37.28 30.3832 37.04C30.5432 36.8 30.6232 36.48 30.6232 36.08V26.69C30.6232 26.27 30.5432 25.96 30.3832 25.76C30.2432 25.54 29.9732 25.39 29.5732 25.31L29.1532 25.22V24.92L34.6432 23.15L34.9432 23.45L34.8532 27.71V36.11C34.8532 36.51 34.9232 36.83 35.0632 37.07C35.2232 37.31 35.4932 37.49 35.8732 37.61L36.1732 37.7V38H29.1532Z" fill="black"/>
<path d="M42.6914 38.45C41.7114 38.45 40.8314 38.33 40.0514 38.09C39.2714 37.87 38.5514 37.59 37.8914 37.25L37.9214 33.68H38.2214L39.2414 35.48C39.6814 36.28 40.1614 36.88 40.6814 37.28C41.2214 37.66 41.9014 37.85 42.7214 37.85C43.6814 37.85 44.4514 37.64 45.0314 37.22C45.6314 36.78 45.9314 36.2 45.9314 35.48C45.9314 34.82 45.7214 34.28 45.3014 33.86C44.8814 33.44 44.1014 33.06 42.9614 32.72L41.7014 32.33C40.4814 31.97 39.5214 31.41 38.8214 30.65C38.1214 29.89 37.7714 28.96 37.7714 27.86C37.7714 26.54 38.2914 25.42 39.3314 24.5C40.3714 23.58 41.8614 23.12 43.8014 23.12C44.5814 23.12 45.3114 23.21 45.9914 23.39C46.6914 23.55 47.3614 23.8 48.0014 24.14L47.8214 27.38H47.5214L46.4714 25.52C46.0914 24.86 45.7114 24.4 45.3314 24.14C44.9714 23.86 44.4214 23.72 43.6814 23.72C43.0014 23.72 42.3614 23.91 41.7614 24.29C41.1614 24.67 40.8614 25.21 40.8614 25.91C40.8614 26.59 41.1114 27.13 41.6114 27.53C42.1314 27.93 42.8914 28.3 43.8914 28.64L45.2414 29.03C46.6814 29.47 47.7114 30.08 48.3314 30.86C48.9514 31.62 49.2614 32.54 49.2614 33.62C49.2614 35.08 48.6814 36.25 47.5214 37.13C46.3814 38.01 44.7714 38.45 42.6914 38.45Z" fill="black"/>
<path d="M50.2176 38V37.7L50.8476 37.46C51.4876 37.2 51.8076 36.69 51.8076 35.93V20.27C51.8076 19.47 51.4876 18.96 50.8476 18.74L50.2176 18.5V18.2H58.1376C60.2576 18.2 62.0776 18.6 63.5976 19.4C65.1376 20.18 66.3176 21.31 67.1376 22.79C67.9776 24.25 68.3976 26.01 68.3976 28.07C68.3976 30.17 67.9476 31.96 67.0476 33.44C66.1476 34.92 64.8876 36.05 63.2676 36.83C61.6676 37.61 59.7776 38 57.5976 38H50.2176ZM56.3076 37.4H57.5976C59.0376 37.4 60.1976 37.12 61.0776 36.56C61.9576 35.98 62.5976 35.02 62.9976 33.68C63.4176 32.32 63.6276 30.46 63.6276 28.1C63.6276 25.74 63.4176 23.89 62.9976 22.55C62.5976 21.19 61.9676 20.23 61.1076 19.67C60.2476 19.09 59.1176 18.8 57.7176 18.8H56.3076V37.4Z" fill="black"/>
<path d="M67.2585 38V37.7L68.0085 37.43C68.4085 37.27 68.7185 37.08 68.9385 36.86C69.1585 36.62 69.3385 36.29 69.4785 35.87L75.6585 18.14H78.2085L84.2985 35.99C84.4585 36.43 84.6385 36.77 84.8385 37.01C85.0385 37.23 85.3485 37.42 85.7685 37.58L86.1285 37.7V38H78.5085V37.7L78.9585 37.55C79.3785 37.39 79.6285 37.17 79.7085 36.89C79.8086 36.59 79.7986 36.24 79.6786 35.84L78.2685 31.52H71.6086L70.1685 35.75C70.0285 36.19 69.9785 36.54 70.0185 36.8C70.0785 37.06 70.3185 37.27 70.7385 37.43L71.3985 37.7V38H67.2585ZM71.8186 30.92H78.0885L75.0585 21.59L71.8186 30.92Z" fill="black"/>
<path d="M95.7014 38.54C94.4814 38.54 93.3014 38.32 92.1614 37.88C91.0414 37.44 90.0314 36.79 89.1314 35.93C88.2514 35.05 87.5514 33.96 87.0314 32.66C86.5114 31.36 86.2514 29.84 86.2514 28.1C86.2514 26.38 86.5114 24.87 87.0314 23.57C87.5514 22.27 88.2614 21.19 89.1614 20.33C90.0614 19.45 91.0714 18.79 92.1914 18.35C93.3314 17.89 94.5014 17.66 95.7014 17.66C96.9214 17.66 98.0914 17.88 99.2114 18.32C100.351 18.74 101.361 19.39 102.241 20.27C103.141 21.13 103.851 22.22 104.371 23.54C104.891 24.84 105.151 26.36 105.151 28.1C105.151 29.8 104.891 31.31 104.371 32.63C103.851 33.93 103.141 35.02 102.241 35.9C101.361 36.76 100.351 37.42 99.2114 37.88C98.0914 38.32 96.9214 38.54 95.7014 38.54ZM95.7014 37.91C96.8014 37.91 97.6914 37.62 98.3714 37.04C99.0514 36.44 99.5414 35.43 99.8414 34.01C100.161 32.57 100.321 30.6 100.321 28.1C100.321 25.58 100.161 23.61 99.8414 22.19C99.5414 20.75 99.0514 19.74 98.3714 19.16C97.6914 18.56 96.8014 18.26 95.7014 18.26C94.6214 18.26 93.7414 18.56 93.0614 19.16C92.3814 19.74 91.8814 20.75 91.5614 22.19C91.2614 23.61 91.1114 25.58 91.1114 28.1C91.1114 30.6 91.2614 32.57 91.5614 34.01C91.8814 35.43 92.3814 36.44 93.0614 37.04C93.7414 37.62 94.6214 37.91 95.7014 37.91Z" fill="black"/>
</svg>
